<mxfile host="app.diagrams.net" modified="2023-05-25T13:24:27.985Z" agent="Mozilla/5.0 (Windows NT 10.0; Win64; x64) AppleWebKit/537.36 (KHTML, like Gecko) Chrome/113.0.0.0 Safari/537.36" etag="6vYVH7y4Y7TXsmexU3fw" version="21.3.3" type="github">
  <diagram name="第 1 页" id="vklCzTIyyUpf36seKNzO">
    <mxGraphModel dx="1032" dy="433" grid="0" gridSize="10" guides="1" tooltips="1" connect="1" arrows="1" fold="1" page="0" pageScale="1" pageWidth="3300" pageHeight="4681" math="0" shadow="0">
      <root>
        <mxCell id="0" />
        <mxCell id="1" parent="0" />
        <mxCell id="lodPdiGszSY0g43xRKaI-1" value="节点" style="ellipse;whiteSpace=wrap;html=1;aspect=fixed;" vertex="1" parent="1">
          <mxGeometry x="290" y="390" width="40" height="40" as="geometry" />
        </mxCell>
        <mxCell id="lodPdiGszSY0g43xRKaI-2" value="节点" style="ellipse;whiteSpace=wrap;html=1;aspect=fixed;" vertex="1" parent="1">
          <mxGeometry x="370" y="420" width="40" height="40" as="geometry" />
        </mxCell>
        <mxCell id="lodPdiGszSY0g43xRKaI-3" value="节点" style="ellipse;whiteSpace=wrap;html=1;aspect=fixed;" vertex="1" parent="1">
          <mxGeometry x="470" y="420" width="40" height="40" as="geometry" />
        </mxCell>
        <mxCell id="lodPdiGszSY0g43xRKaI-4" value="节点" style="ellipse;whiteSpace=wrap;html=1;aspect=fixed;" vertex="1" parent="1">
          <mxGeometry x="550" y="380" width="40" height="40" as="geometry" />
        </mxCell>
        <mxCell id="lodPdiGszSY0g43xRKaI-11" style="edgeStyle=orthogonalEdgeStyle;rounded=0;orthogonalLoop=1;jettySize=auto;html=1;exitX=0.5;exitY=0;exitDx=0;exitDy=0;" edge="1" parent="1" source="lodPdiGszSY0g43xRKaI-5">
          <mxGeometry relative="1" as="geometry">
            <mxPoint x="440" y="260" as="targetPoint" />
          </mxGeometry>
        </mxCell>
        <mxCell id="lodPdiGszSY0g43xRKaI-5" value="单例模式" style="rounded=1;whiteSpace=wrap;html=1;" vertex="1" parent="1">
          <mxGeometry x="400" y="300" width="80" height="30" as="geometry" />
        </mxCell>
        <mxCell id="lodPdiGszSY0g43xRKaI-6" value="路由变化" style="endArrow=classic;html=1;rounded=0;entryX=0.25;entryY=1;entryDx=0;entryDy=0;exitX=0.98;exitY=0.34;exitDx=0;exitDy=0;exitPerimeter=0;" edge="1" parent="1" source="lodPdiGszSY0g43xRKaI-1" target="lodPdiGszSY0g43xRKaI-5">
          <mxGeometry width="50" height="50" relative="1" as="geometry">
            <mxPoint x="290" y="390" as="sourcePoint" />
            <mxPoint x="340" y="340" as="targetPoint" />
          </mxGeometry>
        </mxCell>
        <mxCell id="lodPdiGszSY0g43xRKaI-8" value="" style="endArrow=classic;html=1;rounded=0;exitX=0.68;exitY=0.04;exitDx=0;exitDy=0;exitPerimeter=0;entryX=0.415;entryY=0.933;entryDx=0;entryDy=0;entryPerimeter=0;" edge="1" parent="1" source="lodPdiGszSY0g43xRKaI-2" target="lodPdiGszSY0g43xRKaI-5">
          <mxGeometry width="50" height="50" relative="1" as="geometry">
            <mxPoint x="210" y="480" as="sourcePoint" />
            <mxPoint x="440" y="330" as="targetPoint" />
          </mxGeometry>
        </mxCell>
        <mxCell id="lodPdiGszSY0g43xRKaI-16" value="路由变化" style="edgeLabel;html=1;align=center;verticalAlign=middle;resizable=0;points=[];" vertex="1" connectable="0" parent="lodPdiGszSY0g43xRKaI-8">
          <mxGeometry x="-0.2264" y="1" relative="1" as="geometry">
            <mxPoint as="offset" />
          </mxGeometry>
        </mxCell>
        <mxCell id="lodPdiGszSY0g43xRKaI-9" value="" style="endArrow=classic;html=1;rounded=0;exitX=0.34;exitY=0;exitDx=0;exitDy=0;exitPerimeter=0;entryX=0.605;entryY=0.987;entryDx=0;entryDy=0;entryPerimeter=0;" edge="1" parent="1" source="lodPdiGszSY0g43xRKaI-3" target="lodPdiGszSY0g43xRKaI-5">
          <mxGeometry width="50" height="50" relative="1" as="geometry">
            <mxPoint x="460" y="400" as="sourcePoint" />
            <mxPoint x="440" y="330" as="targetPoint" />
          </mxGeometry>
        </mxCell>
        <mxCell id="lodPdiGszSY0g43xRKaI-17" value="路由变化" style="edgeLabel;html=1;align=center;verticalAlign=middle;resizable=0;points=[];" vertex="1" connectable="0" parent="lodPdiGszSY0g43xRKaI-9">
          <mxGeometry x="-0.4231" y="1" relative="1" as="geometry">
            <mxPoint as="offset" />
          </mxGeometry>
        </mxCell>
        <mxCell id="lodPdiGszSY0g43xRKaI-10" value="" style="endArrow=classic;html=1;rounded=0;entryX=0.75;entryY=1;entryDx=0;entryDy=0;exitX=-0.02;exitY=0.26;exitDx=0;exitDy=0;exitPerimeter=0;" edge="1" parent="1" source="lodPdiGszSY0g43xRKaI-4" target="lodPdiGszSY0g43xRKaI-5">
          <mxGeometry width="50" height="50" relative="1" as="geometry">
            <mxPoint x="509" y="374" as="sourcePoint" />
            <mxPoint x="440" y="330" as="targetPoint" />
          </mxGeometry>
        </mxCell>
        <mxCell id="lodPdiGszSY0g43xRKaI-18" value="路由变化" style="edgeLabel;html=1;align=center;verticalAlign=middle;resizable=0;points=[];" vertex="1" connectable="0" parent="lodPdiGszSY0g43xRKaI-10">
          <mxGeometry x="-0.2948" y="-1" relative="1" as="geometry">
            <mxPoint y="-1" as="offset" />
          </mxGeometry>
        </mxCell>
        <mxCell id="lodPdiGszSY0g43xRKaI-13" value="刷新事件句柄" style="rounded=0;whiteSpace=wrap;html=1;" vertex="1" parent="1">
          <mxGeometry x="540" y="215" width="80" height="40" as="geometry" />
        </mxCell>
        <mxCell id="lodPdiGszSY0g43xRKaI-20" value="否" style="edgeStyle=orthogonalEdgeStyle;rounded=0;orthogonalLoop=1;jettySize=auto;html=1;exitX=0.5;exitY=0;exitDx=0;exitDy=0;" edge="1" parent="1" source="lodPdiGszSY0g43xRKaI-14" target="lodPdiGszSY0g43xRKaI-15">
          <mxGeometry relative="1" as="geometry" />
        </mxCell>
        <mxCell id="lodPdiGszSY0g43xRKaI-21" value="是" style="edgeStyle=orthogonalEdgeStyle;rounded=0;orthogonalLoop=1;jettySize=auto;html=1;exitX=1;exitY=0.5;exitDx=0;exitDy=0;entryX=0;entryY=0.5;entryDx=0;entryDy=0;" edge="1" parent="1" source="lodPdiGszSY0g43xRKaI-14" target="lodPdiGszSY0g43xRKaI-13">
          <mxGeometry relative="1" as="geometry" />
        </mxCell>
        <mxCell id="lodPdiGszSY0g43xRKaI-14" value="是否超时？" style="rhombus;whiteSpace=wrap;html=1;" vertex="1" parent="1">
          <mxGeometry x="395" y="210" width="90" height="50" as="geometry" />
        </mxCell>
        <mxCell id="lodPdiGszSY0g43xRKaI-15" value="刷新事件句柄" style="rounded=0;whiteSpace=wrap;html=1;" vertex="1" parent="1">
          <mxGeometry x="400" y="120" width="80" height="40" as="geometry" />
        </mxCell>
      </root>
    </mxGraphModel>
  </diagram>
</mxfile>
